<svg xmlns="http://www.w3.org/2000/svg" viewBox="0 0 400 560" role="img" aria-label="Bad Boy de Carolina Herrera">
  <defs>
    <linearGradient id="g-vidrio" x1="0" y1="0" x2="1" y2="1">
      <stop offset="0%" stop-color="#1C1E22"/>
      <stop offset="52%" stop-color="#1C1E22"/>
      <stop offset="100%" stop-color="#000000"/>
    </linearGradient>
    <linearGradient id="g-brillo" x1="0" y1="0" x2="1" y2="0">
      <stop offset="0%" stop-color="#fff" stop-opacity=".46"/>
      <stop offset="38%" stop-color="#fff" stop-opacity=".08"/>
      <stop offset="100%" stop-color="#fff" stop-opacity="0"/>
    </linearGradient>
    <linearGradient id="g-metal" x1="0" y1="0" x2="1" y2="0">
      <stop offset="0%" stop-color="#7E858C"/>
      <stop offset="22%" stop-color="#EFF2F4"/>
      <stop offset="52%" stop-color="#C4C8CC"/>
      <stop offset="78%" stop-color="#EFF2F4"/>
      <stop offset="100%" stop-color="#7E858C"/>
    </linearGradient>
    <linearGradient id="g-placa" x1="0" y1="0" x2="0" y2="1">
      <stop offset="0%" stop-color="#EFF2F4" stop-opacity=".95"/>
      <stop offset="100%" stop-color="#C4C8CC" stop-opacity=".85"/>
    </linearGradient>
    <radialGradient id="g-sombra" cx="0.5" cy="0.5" r="0.5">
      <stop offset="0%" stop-color="#2A2E33" stop-opacity=".34"/>
      <stop offset="100%" stop-color="#2A2E33" stop-opacity="0"/>
    </radialGradient>
    <clipPath id="recorte-cuerpo"><path d="M126,200 H274 a12,12 0 0 1 12,12 V330 L214,330 L262,398 L190,398 L138,330 L126,330 V212 a12,12 0 0 1 12,-12 Z M138,346 H186 L246,420 V478 a12,12 0 0 1 -12,12 H150 a12,12 0 0 1 -12,-12 Z"/></clipPath>
  </defs>

  <ellipse cx="200" cy="504" rx="132" ry="26" fill="url(#g-sombra)"/>

  <g>
    <rect x="171" y="170" width="58" height="44" fill="url(#g-vidrio)" opacity=".92"/>
    <rect x="157" y="116" width="86" height="54" rx="7" fill="url(#g-metal)"/>
    <rect x="157" y="161" width="86" height="9" rx="3" fill="#7E858C" opacity=".55"/>
    <rect x="164" y="124" width="7" height="34" rx="3" fill="#fff" opacity=".34"/>
  </g>

  <path d="M126,200 H274 a12,12 0 0 1 12,12 V330 L214,330 L262,398 L190,398 L138,330 L126,330 V212 a12,12 0 0 1 12,-12 Z M138,346 H186 L246,420 V478 a12,12 0 0 1 -12,12 H150 a12,12 0 0 1 -12,-12 Z" fill="url(#g-vidrio)"/>
  <g clip-path="url(#recorte-cuerpo)">
    <rect x="100" y="150" width="118" height="360" fill="url(#g-brillo)"/>
    <ellipse cx="292" cy="470" rx="70" ry="52" fill="#fff" opacity=".07"/>
    <rect x="88" y="452" width="240" height="46" fill="#000000" opacity=".45"/>
  </g>
  <path d="M126,200 H274 a12,12 0 0 1 12,12 V330 L214,330 L262,398 L190,398 L138,330 L126,330 V212 a12,12 0 0 1 12,-12 Z M138,346 H186 L246,420 V478 a12,12 0 0 1 -12,12 H150 a12,12 0 0 1 -12,-12 Z" fill="none" stroke="#fff" stroke-opacity=".34" stroke-width="2"/>

  <g>
    <rect x="154" y="415" width="92" height="54" rx="6" fill="url(#g-placa)"/>
    <rect x="159" y="420" width="82" height="44" rx="4" fill="none" stroke="#7E858C" stroke-opacity=".5"/>
    <text x="200" y="451" text-anchor="middle"
          font-family="Georgia, 'Playfair Display', serif" font-size="27" letter-spacing="4"
          fill="#7E858C" fill-opacity=".92">CH</text>
  </g>

  <rect x="160" y="486" width="80" height="2" rx="1" fill="#C4C8CC" opacity=".5"/>
</svg>
